<?xml version="1.0" standalone="no"?>
<!DOCTYPE svg PUBLIC "-//W3C//DTD SVG 20010904//EN"
 "http://www.w3.org/TR/2001/REC-SVG-20010904/DTD/svg10.dtd">
<svg version="1.0" xmlns="http://www.w3.org/2000/svg"
 width="900.000000pt" height="258.000000pt" viewBox="0 0 900.000000 258.000000"
 preserveAspectRatio="xMidYMid meet">
<metadata>
Created by potrace 1.10, written by Peter Selinger 2001-2011
</metadata>
<g transform="translate(0.000000,258.000000) scale(0.100000,-0.100000)"
fill="#ffffff" stroke="none">
<path d="M1120 2217 c-222 -77 -386 -239 -454 -451 -22 -67 -21 -206 1 -271
19 -55 80 -155 94 -155 21 0 6 -40 -23 -63 -89 -68 -208 -209 -234 -277 -3 -8
-13 -33 -22 -54 -25 -60 -22 -278 4 -326 49 -89 108 -150 189 -192 182 -96
425 -89 635 18 57 29 156 100 179 128 18 22 25 20 57 -9 63 -59 93 -70 185
-70 84 0 88 1 141 38 55 37 109 101 128 151 9 26 12 27 77 24 l68 -3 6 -35
c21 -117 108 -194 218 -193 42 0 114 40 170 94 56 56 74 56 86 0 8 -35 57 -87
91 -95 42 -11 121 33 194 107 36 37 68 67 73 67 4 0 7 -31 7 -69 0 -98 6 -102
134 -99 l101 3 6 170 c3 103 11 184 19 205 47 126 87 180 131 180 l29 0 0
-184 c0 -154 3 -193 19 -244 26 -79 44 -107 88 -127 56 -27 108 -1 213 104 77
77 190 230 190 256 -1 16 -47 45 -63 39 -8 -3 -29 -25 -47 -50 -49 -69 -112
-125 -135 -122 -28 4 -32 35 -34 242 -1 199 -10 245 -55 294 -26 28 -36 32
-83 32 -75 0 -150 -52 -224 -154 -18 -26 -36 -46 -41 -46 -4 0 -8 33 -8 73 0
104 0 104 -113 89 -52 -6 -102 -14 -111 -18 -14 -5 -16 -30 -16 -204 l0 -198
-54 -57 c-62 -66 -86 -69 -98 -15 -4 19 -7 137 -7 263 1 166 -2 232 -11 242
-24 29 -193 13 -305 -28 -101 -37 -204 -114 -270 -202 -43 -57 -56 -81 -81
-155 -18 -51 -29 -67 -49 -75 -17 -6 -32 -6 -43 1 -14 9 -16 29 -13 146 3 144
-9 209 -52 293 -30 58 -49 75 -91 82 -84 13 -112 -37 -103 -186 6 -111 33
-192 99 -299 19 -30 19 -37 8 -73 -14 -42 -79 -109 -106 -109 -29 0 -78 37
-96 72 -9 18 -24 67 -32 109 -13 64 -14 94 -4 195 7 65 12 146 13 179 0 54 -2
60 -20 58 -11 -2 -55 -6 -98 -9 -42 -4 -85 -12 -94 -19 -12 -9 -18 -34 -22
-91 -4 -48 -13 -89 -23 -104 -9 -14 -23 -50 -31 -81 -52 -198 -140 -339 -256
-410 -47 -28 -132 -39 -189 -25 -28 8 -60 20 -71 28 -81 57 -126 211 -102 356
15 96 51 169 114 233 52 53 68 57 132 34 117 -42 306 9 350 95 21 40 18 70 -8
101 -42 50 -82 62 -197 61 -58 0 -118 -5 -133 -11 -18 -7 -35 -8 -46 -2 -48
26 -68 232 -32 347 40 127 117 241 198 292 89 55 180 51 228 -12 27 -35 60
-130 52 -150 -4 -11 -46 -34 -112 -62 -36 -15 -95 -41 -189 -83 -56 -25 -67
-34 -61 -48 4 -10 11 -34 14 -53 8 -48 39 -50 127 -10 38 17 84 38 102 46 17
7 47 21 65 28 109 49 151 68 232 101 50 21 96 45 103 54 18 22 -2 110 -39 171
-5 8 -13 24 -18 35 -16 36 -95 102 -156 131 -56 27 -69 29 -195 31 -117 2
-144 -1 -200 -20z m1478 -1260 l2 -167 -46 -50 c-70 -75 -105 -78 -142 -11
-29 52 -32 194 -4 244 36 65 57 90 106 123 81 54 81 54 84 -139z"/>
<path d="M5100 2215 c-25 -7 -62 -22 -84 -34 -34 -20 -44 -21 -85 -12 -186 43
-352 51 -496 25 -204 -37 -322 -96 -434 -217 -64 -69 -92 -121 -122 -232 -61
-227 27 -430 228 -525 85 -40 193 -42 276 -6 30 14 58 30 62 36 3 6 7 74 7
153 1 162 -4 170 -70 120 -59 -45 -107 -63 -171 -63 -69 0 -140 28 -170 67
-41 51 -18 142 52 213 42 42 159 110 189 110 7 0 30 6 53 14 63 22 263 48 345
44 85 -3 84 -1 51 -88 -52 -135 -61 -220 -61 -565 0 -279 -3 -334 -19 -411
-22 -102 -41 -145 -84 -191 -28 -30 -36 -33 -89 -33 -35 0 -72 7 -91 16 -35
19 -142 97 -170 126 -63 64 -173 96 -222 64 -55 -36 -99 -149 -83 -212 17 -66
126 -118 331 -159 98 -19 268 -19 322 0 22 8 47 15 56 15 21 0 122 53 167 87
60 44 110 101 147 164 19 33 35 65 35 70 0 6 5 20 12 32 7 12 20 51 30 87 24
87 25 384 2 536 -11 73 -15 156 -12 259 4 179 8 188 90 199 68 9 164 58 205
104 36 40 52 107 37 151 -5 14 -24 36 -43 48 -39 26 -114 29 -191 8z"/>
<path d="M5992 1457 c-29 -30 -32 -39 -32 -93 0 -67 11 -87 76 -147 l42 -38
-30 -72 c-76 -179 -125 -265 -193 -334 -110 -114 -120 -94 -107 232 7 176 7
243 -2 252 -8 9 -22 10 -51 3 -22 -5 -65 -12 -96 -15 -95 -10 -91 -1 -90 -241
l2 -210 -30 -41 c-49 -68 -108 -66 -132 4 -9 27 -9 74 -3 182 5 80 9 187 9
236 0 103 14 94 -120 76 -58 -8 -84 -16 -96 -30 -12 -15 -17 -56 -23 -185 -12
-297 8 -435 74 -502 71 -73 181 -50 282 60 l29 31 20 -24 c10 -13 19 -31 19
-40 0 -24 45 -68 83 -80 53 -18 116 16 209 111 75 76 160 192 183 248 4 8 11
22 16 30 4 8 28 55 53 104 31 63 46 84 52 75 5 -8 10 -97 10 -199 2 -253 26
-334 110 -366 39 -15 44 -15 86 5 25 11 68 40 95 66 28 25 56 45 62 45 6 0 11
-18 11 -43 0 -66 18 -77 122 -77 127 0 120 -9 112 139 -5 110 -3 136 15 206
12 43 26 84 31 89 6 6 10 17 10 27 0 22 85 112 102 107 10 -4 15 -48 20 -184
10 -272 40 -358 135 -388 38 -12 113 31 197 115 43 44 84 79 91 79 7 0 18 -14
24 -31 15 -45 110 -132 159 -147 109 -32 218 7 331 119 54 55 141 169 141 186
0 3 13 24 28 47 15 22 31 48 35 56 4 8 18 35 32 59 14 24 25 49 25 56 0 6 11
22 25 35 l24 23 -6 -155 c-10 -262 19 -385 102 -429 l41 -22 57 26 c33 15 81
50 115 84 61 61 152 175 152 191 0 5 6 15 14 21 24 20 25 58 1 81 -12 11 -25
20 -31 20 -5 0 -27 -26 -49 -56 -40 -57 -113 -124 -133 -124 -6 0 -19 11 -28
25 -15 23 -16 39 -5 168 7 78 15 193 18 256 l6 114 -29 -7 c-78 -18 -161 -18
-198 -1 -46 22 -53 38 -32 70 41 63 -6 155 -79 155 -47 0 -69 -12 -94 -54 -41
-66 -16 -157 60 -217 42 -33 48 -54 24 -85 -8 -10 -15 -25 -15 -31 0 -20 -68
-159 -106 -219 -81 -127 -143 -174 -230 -174 -54 0 -59 2 -95 40 -59 61 -63
108 -13 135 111 60 212 164 247 253 34 85 11 178 -51 215 -44 25 -155 23 -218
-4 -88 -39 -179 -149 -226 -271 -21 -56 -47 -184 -48 -232 0 -22 -14 -43 -53
-83 -58 -57 -67 -61 -91 -37 -14 13 -16 47 -16 215 0 216 -8 256 -58 312 -35
37 -114 39 -171 3 -63 -40 -161 -146 -161 -175 0 -6 -7 -11 -15 -11 -12 0 -15
16 -15 85 0 69 -3 87 -16 92 -19 7 -181 -15 -206 -28 -17 -9 -18 -27 -18 -228
l0 -219 -35 -31 c-39 -34 -54 -38 -73 -19 -17 17 -15 194 5 376 19 177 18 181
-51 163 -106 -26 -206 -2 -206 50 0 15 5 31 10 34 6 3 10 23 10 45 0 55 -44
100 -97 100 -31 0 -46 -7 -71 -33z m1692 -233 c25 -10 20 -78 -8 -122 -30 -47
-67 -86 -94 -101 -26 -14 -26 -14 -8 69 16 78 37 123 68 144 26 19 22 18 42
10z"/>
</g>
</svg>
