<svg version="1" xmlns="http://www.w3.org/2000/svg" width="1200" height="344" viewBox="0 0 900.000000 258.000000"><g fill="#fff"><path d="M112 36.3C89.8 44 73.4 60.2 66.6 81.4c-2.2 6.7-2.1 20.6.1 27.1 1.9 5.5 8 15.5 9.4 15.5 2.1 0 .6 4-2.3 6.3-8.9 6.8-20.8 20.9-23.4 27.7-.3.8-1.3 3.3-2.2 5.4-2.5 6-2.2 27.8.4 32.6 4.9 8.9 10.8 15 18.9 19.2 18.2 9.6 42.5 8.9 63.5-1.8 5.7-2.9 15.6-10 17.9-12.8 1.8-2.2 2.5-2 5.7.9 6.3 5.9 9.3 7 18.5 7 8.4 0 8.8-.1 14.1-3.8 5.5-3.7 10.9-10.1 12.8-15.1.9-2.6 1.2-2.7 7.7-2.4l6.8.3.6 3.5c2.1 11.7 10.8 19.4 21.8 19.3 4.2 0 11.4-4 17-9.4 5.6-5.6 7.4-5.6 8.6 0 .8 3.5 5.7 8.7 9.1 9.5 4.2 1.1 12.1-3.3 19.4-10.7 3.6-3.7 6.8-6.7 7.3-6.7.4 0 .7 3.1.7 6.9 0 9.8.6 10.2 13.4 9.9l10.1-.3.6-17c.3-10.3 1.1-18.4 1.9-20.5 4.7-12.6 8.7-18 13.1-18h2.9v18.4c0 15.4.3 19.3 1.9 24.4 2.6 7.9 4.4 10.7 8.8 12.7 5.6 2.7 10.8.1 21.3-10.4 7.7-7.7 19-23 19-25.6-.1-1.6-4.7-4.5-6.3-3.9-.8.3-2.9 2.5-4.7 5-4.9 6.9-11.2 12.5-13.5 12.2-2.8-.4-3.2-3.5-3.4-24.2-.1-19.9-1-24.5-5.5-29.4-2.6-2.8-3.6-3.2-8.3-3.2-7.5 0-15 5.2-22.4 15.4-1.8 2.6-3.6 4.6-4.1 4.6-.4 0-.8-3.3-.8-7.3 0-10.4 0-10.4-11.3-8.9-5.2.6-10.2 1.4-11.1 1.8-1.4.5-1.6 3-1.6 20.4v19.8l-5.4 5.7c-6.2 6.6-8.6 6.9-9.8 1.5-.4-1.9-.7-13.7-.7-26.3.1-16.6-.2-23.2-1.1-24.2-2.4-2.9-19.3-1.3-30.5 2.8-10.1 3.7-20.4 11.4-27 20.2-4.3 5.7-5.6 8.1-8.1 15.5-1.8 5.1-2.9 6.7-4.9 7.5-1.7.6-3.2.6-4.3-.1-1.4-.9-1.6-2.9-1.3-14.6.3-14.4-.9-20.9-5.2-29.3-3-5.8-4.9-7.5-9.1-8.2-8.4-1.3-11.2 3.7-10.3 18.6.6 11.1 3.3 19.2 9.9 29.9 1.9 3 1.9 3.7.8 7.3-1.4 4.2-7.9 10.9-10.6 10.9-2.9 0-7.8-3.7-9.6-7.2-.9-1.8-2.4-6.7-3.2-10.9-1.3-6.4-1.4-9.4-.4-19.5.7-6.5 1.2-14.6 1.3-17.9 0-5.4-.2-6-2-5.8-1.1.2-5.5.6-9.8.9-4.2.4-8.5 1.2-9.4 1.9-1.2.9-1.8 3.4-2.2 9.1-.4 4.8-1.3 8.9-2.3 10.4-.9 1.4-2.3 5-3.1 8.1-5.2 19.8-14 33.9-25.6 41-4.7 2.8-13.2 3.9-18.9 2.5-2.8-.8-6-2-7.1-2.8-8.1-5.7-12.6-21.1-10.2-35.6 1.5-9.6 5.1-16.9 11.4-23.3 5.2-5.3 6.8-5.7 13.2-3.4 11.7 4.2 30.6-.9 35-9.5 2.1-4 1.8-7-.8-10.1-4.2-5-8.2-6.2-19.7-6.1-5.8 0-11.8.5-13.3 1.1-1.8.7-3.5.8-4.6.2-4.8-2.6-6.8-23.2-3.2-34.7 4-12.7 11.7-24.1 19.8-29.2 8.9-5.5 18-5.1 22.8 1.2 2.7 3.5 6 13 5.2 15-.4 1.1-4.6 3.4-11.2 6.2-3.6 1.5-9.5 4.1-18.9 8.3-5.6 2.5-6.7 3.4-6.1 4.8.4 1 1.1 3.4 1.4 5.3.8 4.8 3.9 5 12.7 1 3.8-1.7 8.4-3.8 10.2-4.6 1.7-.7 4.7-2.1 6.5-2.8 10.9-4.9 15.1-6.8 23.2-10.1 5-2.1 9.6-4.5 10.3-5.4 1.8-2.2-.2-11-3.9-17.1-.5-.8-1.3-2.4-1.8-3.5-1.6-3.6-9.5-10.2-15.6-13.1-5.6-2.7-6.9-2.9-19.5-3.1-11.7-.2-14.4.1-20 2zm147.8 126l.2 16.7-4.6 5c-7 7.5-10.5 7.8-14.2 1.1-2.9-5.2-3.2-19.4-.4-24.4 3.6-6.5 5.7-9 10.6-12.3 8.1-5.4 8.1-5.4 8.4 13.9z"/><path d="M510 36.5c-2.5.7-6.2 2.2-8.4 3.4-3.4 2-4.4 2.1-8.5 1.2-18.6-4.3-35.2-5.1-49.6-2.5-20.4 3.7-32.2 9.6-43.4 21.7-6.4 6.9-9.2 12.1-12.2 23.2-6.1 22.7 2.7 43 22.8 52.5 8.5 4 19.3 4.2 27.6.6 3-1.4 5.8-3 6.2-3.6.3-.6.7-7.4.7-15.3.1-16.2-.4-17-7-12-5.9 4.5-10.7 6.3-17.1 6.3-6.9 0-14-2.8-17-6.7-4.1-5.1-1.8-14.2 5.2-21.3 4.2-4.2 15.9-11 18.9-11 .7 0 3-.6 5.3-1.4 6.3-2.2 26.3-4.8 34.5-4.4 8.5.3 8.4.1 5.1 8.8-5.2 13.5-6.1 22-6.1 56.5 0 27.9-.3 33.4-1.9 41.1-2.2 10.2-4.1 14.5-8.4 19.1-2.8 3-3.6 3.3-8.9 3.3-3.5 0-7.2-.7-9.1-1.6-3.5-1.9-14.2-9.7-17-12.6-6.3-6.4-17.3-9.6-22.2-6.4-5.5 3.6-9.9 14.9-8.3 21.2 1.7 6.6 12.6 11.8 33.1 15.9 9.8 1.9 26.8 1.9 32.2 0 2.2-.8 4.7-1.5 5.6-1.5 2.1 0 12.2-5.3 16.7-8.7 6-4.4 11-10.1 14.7-16.4 1.9-3.3 3.5-6.5 3.5-7 0-.6.5-2 1.2-3.2.7-1.2 2-5.1 3-8.7 2.4-8.7 2.5-38.4.2-53.6-1.1-7.3-1.5-15.6-1.2-25.9.4-17.9.8-18.8 9-19.9 6.8-.9 16.4-5.8 20.5-10.4 3.6-4 5.2-10.7 3.7-15.1-.5-1.4-2.4-3.6-4.3-4.8-3.9-2.6-11.4-2.9-19.1-.8zm89.2 75.8c-2.9 3-3.2 3.9-3.2 9.3 0 6.7 1.1 8.7 7.6 14.7l4.2 3.8-3 7.2c-7.6 17.9-12.5 26.5-19.3 33.4-11 11.4-12 9.4-10.7-23.2.7-17.6.7-24.3-.2-25.2-.8-.9-2.2-1-5.1-.3-2.2.5-6.5 1.2-9.6 1.5-9.5 1-9.1.1-9 24.1l.2 21-3 4.1c-4.9 6.8-10.8 6.6-13.2-.4-.9-2.7-.9-7.4-.3-18.2.5-8 .9-18.7.9-23.6 0-10.3 1.4-9.4-12-7.6-5.8.8-8.4 1.6-9.6 3-1.2 1.5-1.7 5.6-2.3 18.5-1.2 29.7.8 43.5 7.4 50.2 7.1 7.3 18.1 5 28.2-6l2.9-3.1 2 2.4c1 1.3 1.9 3.1 1.9 4 0 2.4 4.5 6.8 8.3 8 5.3 1.8 11.6-1.6 20.9-11.1 7.5-7.6 16-19.2 18.3-24.8.4-.8 1.1-2.2 1.6-3 .4-.8 2.8-5.5 5.3-10.4 3.1-6.3 4.6-8.4 5.2-7.5.5.8 1 9.7 1 19.9.2 25.3 2.6 33.4 11 36.6 3.9 1.5 4.4 1.5 8.6-.5 2.5-1.1 6.8-4 9.5-6.6 2.8-2.5 5.6-4.5 6.2-4.5.6 0 1.1 1.8 1.1 4.3 0 6.6 1.8 7.7 12.2 7.7 12.7 0 12 .9 11.2-13.9-.5-11-.3-13.6 1.5-20.6 1.2-4.3 2.6-8.4 3.1-8.9.6-.6 1-1.7 1-2.7 0-2.2 8.5-11.2 10.2-10.7 1 .4 1.5 4.8 2 18.4 1 27.2 4 35.8 13.5 38.8 3.8 1.2 11.3-3.1 19.7-11.5 4.3-4.4 8.4-7.9 9.1-7.9.7 0 1.8 1.4 2.4 3.1 1.5 4.5 11 13.2 15.9 14.7 10.9 3.2 21.8-.7 33.1-11.9 5.4-5.5 14.1-16.9 14.1-18.6 0-.3 1.3-2.4 2.8-4.7 1.5-2.2 3.1-4.8 3.5-5.6.4-.8 1.8-3.5 3.2-5.9 1.4-2.4 2.5-4.9 2.5-5.6 0-.6 1.1-2.2 2.5-3.5l2.4-2.3-.6 15.5c-1 26.2 1.9 38.5 10.2 42.9l4.1 2.2 5.7-2.6c3.3-1.5 8.1-5 11.5-8.4 6.1-6.1 15.2-17.5 15.2-19.1 0-.5.6-1.5 1.4-2.1 2.4-2 2.5-5.8.1-8.1-1.2-1.1-2.5-2-3.1-2-.5 0-2.7 2.6-4.9 5.6-4 5.7-11.3 12.4-13.3 12.4-.6 0-1.9-1.1-2.8-2.5-1.5-2.3-1.6-3.9-.5-16.8.7-7.8 1.5-19.3 1.8-25.6l.6-11.4-2.9.7c-7.8 1.8-16.1 1.8-19.8.1-4.6-2.2-5.3-3.8-3.2-7 4.1-6.3-.6-15.5-7.9-15.5-4.7 0-6.9 1.2-9.4 5.4-4.1 6.6-1.6 15.7 6 21.7 4.2 3.3 4.8 5.4 2.4 8.5-.8 1-1.5 2.5-1.5 3.1 0 2-6.8 15.9-10.6 21.9-8.1 12.7-14.3 17.4-23 17.4-5.4 0-5.9-.2-9.5-4-5.9-6.1-6.3-10.8-1.3-13.5 11.1-6 21.2-16.4 24.7-25.3 3.4-8.5 1.1-17.8-5.1-21.5-4.4-2.5-15.5-2.3-21.8.4-8.8 3.9-17.9 14.9-22.6 27.1-2.1 5.6-4.7 18.4-4.8 23.2 0 2.2-1.4 4.3-5.3 8.3-5.8 5.7-6.7 6.1-9.1 3.7-1.4-1.3-1.6-4.7-1.6-21.5 0-21.6-.8-25.6-5.8-31.2-3.5-3.7-11.4-3.9-17.1-.3-6.3 4-16.1 14.6-16.1 17.5 0 .6-.7 1.1-1.5 1.1-1.2 0-1.5-1.6-1.5-8.5s-.3-8.7-1.6-9.2c-1.9-.7-18.1 1.5-20.6 2.8-1.7.9-1.8 2.7-1.8 22.8v21.9l-3.5 3.1c-3.9 3.4-5.4 3.8-7.3 1.9-1.7-1.7-1.5-19.4.5-37.6 1.9-17.7 1.8-18.1-5.1-16.3-10.6 2.6-20.6.2-20.6-5 0-1.5.5-3.1 1-3.4.6-.3 1-2.3 1-4.5 0-5.5-4.4-10-9.7-10-3.1 0-4.6.7-7.1 3.3zm169.2 23.3c2.5 1 2 7.8-.8 12.2-3 4.7-6.7 8.6-9.4 10.1-2.6 1.4-2.6 1.4-.8-6.9 1.6-7.8 3.7-12.3 6.8-14.4 2.6-1.9 2.2-1.8 4.2-1z"/></g></svg>