<svg xmlns="http://www.w3.org/2000/svg" width="1024" height="1024" viewBox="0 0 1024 1024"><path d="M614.283 6.36c0 .68-.791 1.47-1.698 1.812s-3.734 2.716-6.109 5.204c-2.488 2.488-5.091 4.186-5.77 3.734-.566-.338-1.132.114-1.132 1.018 0 2.15-1.246 2.375-3.168.452-.791-.791-1.356-.904-1.356-.452 0 .566-.68.338-1.584-.452-1.356-1.018-2.036-.791-3.734 1.132-3.054 3.734-5.998 4.414-10.522 2.716-4.752-1.812-5.656-1.698-13.691 2.15-7.016 3.396-9.843 3.734-15.499 1.698-3.396-1.246-3.959-1.246-5.432.791-.904 1.132-1.584 1.47-1.584.791 0-1.47-2.941-1.922-3.62-.566-.566 1.356-11.202 4.98-12.331 4.186-.566-.338-.68.114-.338 1.018s.114 2.036-.566 2.488c-.68.338-1.584 0-1.922-1.018-.338-.904-1.356-1.356-2.375-1.018-1.47.566-1.47.338-.452-1.698.68-1.246 1.246-2.83 1.246-3.506 0-2.036-2.716-1.356-4.3 1.018-.791 1.246-2.488 2.264-3.959 2.264-1.356 0-4.414 1.584-6.675 3.396-2.264 1.922-4.414 2.941-4.866 2.375-.452-.791-1.698-.791-3.506-.114-1.584.68-4.072 1.132-5.656 1.132-1.47 0-3.282 1.018-4.072 2.264s-1.922 2.264-2.488 2.264c-.566 0-2.716 1.246-4.752 2.83s-4.638 2.83-5.884 2.83c-1.246 0-2.602.904-2.941 1.922-.566 1.47-1.018 1.584-1.698.566-.452-.68-2.375-1.584-4.3-1.812-2.83-.228-4.3.452-7.241 3.396-2.036 2.036-4.072 3.506-4.525 3.168-.566-.338-2.264.338-3.848 1.356-2.375 1.584-2.83 1.584-2.83.114 0-.904-.791-2.264-1.698-3.054-1.018-.904-1.698-.904-1.698-.228s-1.018 1.584-2.264 1.922c-1.246.452-2.036 1.132-1.812 1.584.338.452-.452 1.356-1.698 2.15-1.132.791-2.15.904-2.15.338 0-1.246-5.543-2.375-7.582-1.584-.791.338-1.132 1.018-.791 1.584s-.114 1.018-.904 1.018c-.904 0-2.83 1.47-4.525 3.396-2.488 2.83-3.168 3.168-4.3 1.698-1.812-2.15-6.336-2.264-7.127-.114-.338.791-1.812 1.812-3.282 2.036-1.47.338-3.62 1.018-4.752 1.47-1.812.791-2.036.566-1.47-.904.338-1.018.228-2.15-.338-2.488-.68-.452-1.584.566-2.264 2.15-1.356 3.62-6.788 9.166-9.052 9.166-.904 0-1.584.68-1.356 1.584.228 1.018-.452 1.356-2.036.904-1.246-.338-2.264-.114-2.264.338 0 .566-1.018 1.246-2.15 1.698-1.132.338-3.506 1.922-5.091 3.62-1.584 1.584-2.941 2.264-2.941 1.584 0-1.698 2.83-4.638 4.414-4.638.68 0 .904-.791.566-1.698-.452-.904-.114-1.698.566-1.698s1.246-.791 1.246-1.698c0-1.698 4.414-6.561 7.582-8.372 1.132-.566 1.698-1.47 1.246-1.812-.452-.452-2.488.566-4.638 2.15-2.15 1.698-4.638 2.716-5.543 2.375s-2.941.566-4.638 2.15c-1.698 1.47-4.525 3.734-6.45 4.752-1.812 1.132-3.396 2.488-3.396 2.941s-.68.904-1.356.904c-.791 0-5.543 3.959-10.522 8.6-7.693 7.354-9.052 8.259-9.391 6.222-.452-2.602-2.488-3.054-4.3-1.246-.68.68-3.168 1.356-5.656 1.47-3.168.228-4.525.904-4.752 2.264-.452 2.488-6.109 8.259-7.468 7.806-.566-.228-.338.452.452 1.47 1.246 1.47 1.132 1.698-.228 1.132-1.018-.452-2.036.114-2.488 1.132-.452 1.132-1.356 1.698-2.375 1.246-1.018-.338-2.036.114-2.375 1.018-.452.904-1.812 1.698-3.282 1.698-2.15 0-2.716-.791-3.396-4.866-.904-4.525-.904-4.638-1.584-1.47-.68 3.396-3.506 5.543-3.506 2.602 0-.904-.68-2.264-1.584-2.941-2.15-1.812-4.525 1.356-3.62 4.866.68 2.602.452 2.602-2.15 1.47-1.584-.791-3.054-2.716-3.506-4.525-.338-1.698-1.132-3.054-1.698-3.054-1.812 0-1.018 3.734 1.584 7.241 3.848 5.204 6.109 11.202 4.414 11.768-.791.228-1.356 1.356-1.356 2.375 0 1.132-1.018 3.396-2.264 4.866-1.132 1.584-1.812 3.168-1.47 3.62.452.452-.338 1.47-1.584 2.375-1.356.904-2.716 3.168-3.168 4.866-.338 1.812-2.488 4.866-4.638 7.016-2.264 2.036-4.525 5.091-5.091 6.675-.904 2.264-1.356 2.488-2.15 1.246-.68-1.132-.452-2.264.68-3.506.791-.904 1.584-2.488 1.584-3.396 0-1.246-.228-1.356-1.018-.114-.452.904-1.246 1.47-1.698 1.47-3.054-.452-4.186.566-6.561 5.204-1.47 3.054-3.282 5.884-3.959 6.336-.791.452-1.47 1.698-1.47 2.488 0 .904-.566 1.698-1.132 1.698-.68 0-1.018.338-1.018.791.566 3.396-1.246 6.675-8.034 14.709-.566.791-1.132 2.264-1.132 3.282 0 1.132-.338 1.698-.68 1.246-.338-.338-1.698.338-3.054 1.47-1.246 1.246-2.716 1.922-3.282 1.584-.452-.338-.904 0-.904.566 0 .68-1.018 1.246-2.264 1.246s-2.83 1.018-3.62 2.264c-.791 1.246-2.264 2.264-3.168 2.264-1.922 0-5.656 5.998-5.656 9.166 0 1.132-.452 2.15-1.018 2.15s-1.698 1.812-2.488 3.959c-.791 2.15-1.812 3.959-2.264 3.959s-.566 1.018-.228 2.264c.338 1.246 0 2.264-.68 2.264s-1.246.452-1.246 1.018c0 .68-1.47 2.716-3.282 4.752l-3.282 3.506-1.812-3.506c-1.812-3.396-4.072-4.752-4.072-2.264 0 .566-.452.791-1.132.452-.566-.338-1.132.338-1.132 1.584 0 1.356-.68 2.036-1.812 1.922-2.602-.338-6.902 3.848-7.468 7.241-.228 2.036-.904 2.716-2.488 2.488-1.584-.338-2.036.114-1.47 1.922 1.132 4.638-3.396 3.282-5.318-1.584-.791-1.922-1.132-1.584-2.375 2.264-1.018 3.506-1.018 4.866 0 6.222.791.904 1.132 3.848 1.018 6.336-.228 2.602.338 8.486 1.246 13.011.904 5.204 1.132 8.825.452 9.618-1.698 2.15.114 16.517 2.375 19.122 3.054 3.282 4.752 8.486 3.959 11.879-1.018 3.848-5.318 10.184-7.016 10.184-.791 0-1.47.452-1.47 1.018 0 .452-1.246.68-2.83.338-2.941-.566-3.959 1.584-1.812 3.848.68.566.114 1.132-1.698 1.132-1.47.114-2.716-.228-2.716-.791s-.68-1.018-1.584-1.018-1.812-1.018-2.036-2.264c-.228-1.356-.791-2.375-1.47-2.375-2.264 0-1.698 3.168 1.018 6.336 1.584 1.812 2.716 3.506 2.602 3.848 0 .338.791 2.375 1.812 4.3 1.812 3.506 1.812 3.62 0 2.941s-1.812-.566-.566 1.132c.904 1.018 1.246 2.375.904 2.941-.452.68.114 3.054 1.132 5.432 2.488 5.543 2.941 10.522.904 11.313-1.246.452-1.246 1.132 0 4.3.904 2.036 1.246 4.072.904 4.525-.452.452-.904 1.246-.904 1.812-.114.566-.338 1.132-.452 1.246-.904 1.018-.68 9.618.338 10.861.566.791.791 3.396.452 5.884-.338 2.83-.114 4.3.566 3.848s1.018.791.791 3.282c-.338 3.168.228 4.414 3.054 6.788 2.488 2.036 3.506 4.072 3.62 6.45 0 1.922-.452 3.168-1.018 2.83-1.584-1.132-1.246 1.47.791 4.525 1.246 2.036 1.47 2.83.452 2.83-1.584 0-.566 5.77 1.246 6.902 1.356.791 2.15 9.956.904 10.747-1.698 1.018-1.132 2.488 1.246 3.282 1.922.566 2.036 1.132 1.018 3.054-.68 1.246-1.018 3.168-.68 4.3.228 1.018 0 2.83-.566 3.848-.791 1.356-.566 1.812.791 1.812.904 0 1.698.338 1.812.791 0 .566.338 3.959.68 7.693s.566 8.145.566 9.843c.114 1.812.452 3.168.904 3.168.68 0 .791 4.638.114 9.843-.114 1.698-3.506.566-3.506-1.246 0-.904-3.396-1.132-12.106-.68-10.747.566-12.897 1.018-18.443 3.959-8.6 4.752-15.161 11.654-16.972 18.101-1.246 4.414-1.132 8.259.452 24.099 1.698 16.065 2.488 20.365 5.884 28.738 2.036 5.432 4.3 12.22 4.98 15.047 1.698 7.468 7.806 21.835 19.122 44.464 5.543 10.975 10.409 21.269 10.861 22.853 3.62 12.106 16.293 33.265 22.853 38.014 1.812 1.356 6.561 4.186 10.409 6.222 3.959 2.15 8.825 4.752 10.747 5.77s5.318 1.922 7.468 1.812l3.959-.114-3.734-.452c-2.15-.338-5.656-1.584-7.92-2.83a471.557 471.557 0 0 0-11.541-6.336c-9.277-4.98-12.331-7.354-15.275-11.993-1.246-2.15-3.734-5.998-5.543-8.711-1.812-2.602-4.98-9.166-7.127-14.481-2.264-5.318-8.6-19.122-14.256-30.66-11.202-23.195-16.179-34.849-19.913-47.519-1.47-4.638-3.734-11.313-5.204-14.709-1.698-4.414-3.054-11.768-4.525-24.893-2.375-22.853-1.812-26.135 6.109-33.828s14.709-10.747 25.117-11.202c9.729-.452 16.293 1.812 21.949 7.693 2.375 2.488 3.848 3.168 5.77 2.716 1.812-.452 2.83 0 3.848 1.698.68 1.356 2.15 2.375 3.396 2.375 1.132 0 2.83 1.018 3.734 2.375 1.132 1.584 1.812 1.812 2.15.904.338-1.018 2.264.114 5.318 2.941 4.3 4.072 5.543 4.525 10.861 4.638 4.638.114 6.902.904 10.07 3.282 2.264 1.698 4.072 3.506 4.072 4.072s1.132 2.15 2.375 3.396c2.15 2.15 2.488 3.62 2.375 15.047 0 25.117-.904 42.994-2.036 43.332s-1.132 8.711.114 21.497c.338 3.959.114 7.241-.452 7.582-.566.452-1.132 1.584-1.132 2.716 0 3.282-2.264 19.685-3.506 26.249-.68 3.396-1.584 9.391-1.922 13.238-.452 5.884-.338 7.241 1.246 7.806 1.018.338 1.812 1.132 1.812 1.812 0 .566-.452.791-1.018.452-.566-.452-.791.338-.452 1.584s1.018 2.264 1.47 2.264c.566 0 1.246 2.488 1.698 5.432.566 4.072.114 6.788-1.584 11.313-1.246 3.168-2.036 6.561-1.698 7.468 1.018 2.83-.68 4.525-2.264 2.264-1.356-1.812-1.584-1.698-2.036 1.132-.338 1.584-.114 3.282.338 3.62.566.338 1.018 1.698 1.018 3.168 0 1.356.566 3.054 1.132 3.62.791.791.791 3.054-.114 7.241-1.356 6.222-1.132 10.636 1.584 29.983 1.698 11.879 5.318 20.703 14.709 36.206 2.264 3.734 6.222 12.106 8.825 18.667 5.998 15.388 7.582 19.009 9.052 19.799.566.452.904 1.584.566 2.602-.338 1.132-.228 3.734.338 5.884.566 2.83 1.356 3.848 2.716 3.62 1.47-.228 1.922.566 1.922 3.168 0 1.922.791 4.3 1.698 5.204.904 1.018 1.698 2.716 1.698 3.959s.904 2.488 2.036 2.941c3.62 1.246 7.016 5.204 7.693 9.052.338 2.036 1.132 3.734 1.698 3.734s.791 1.246.338 2.716c-.68 2.716 1.132 4.98 2.375 3.054 1.584-2.716 10.184 4.525 9.277 7.806-.68 2.488 1.132 5.656 3.168 5.656.904 0 1.584.338 1.584.791-.338 2.264.228 3.734 1.47 3.734 1.922 0 7.468 6.675 9.618 11.541 1.018 2.375 2.488 4.3 3.282 4.3s1.812 1.018 2.15 2.264c.338 1.246 1.246 2.264 1.812 2.264s1.018 1.246 1.018 2.716c0 1.47.791 3.282 1.698 4.072s1.698 2.602 1.698 3.959c0 1.356.791 3.168 1.698 3.959s1.698 2.15 1.698 2.941c0 .904.68 1.584 1.47 1.584s2.036 1.132 2.941 2.375c1.356 2.264 1.246 2.375-.452 1.698-1.132-.338.68 2.036 3.959 5.432 3.168 3.282 7.693 8.6 10.07 11.654 5.204 6.902 13.915 16.179 15.275 16.179.566 0 2.941 2.264 5.432 5.091s5.318 5.091 6.222 5.091c1.922 0 9.391 7.354 9.391 9.277 0 1.356 6.675 7.693 8.034 7.693.452 0 1.698.338 2.602.68 1.356.566 1.698.228 1.132-1.132-.904-2.264-.114-2.264 4.752 0 4.186 2.036 5.204 3.959 1.584 3.054-2.83-.791-3.054 1.698-.228 2.716 1.018.452 3.396 1.922 5.204 3.396 2.602 2.15 3.506 2.375 4.186 1.246.791-1.132 1.018-1.132 1.018-.114 0 2.375 8.6 7.468 11.202 6.561 1.698-.566 2.716.114 4.072 2.716 2.375 4.638 7.127 4.866 10.07.452 1.018-1.812 1.698-2.264 1.356-1.246-.68 2.264 4.414 8.145 6.222 7.016.68-.338 1.584-.338 2.036.228.338.566 2.264 1.922 4.072 2.941 1.922 1.132 3.282 2.488 3.168 3.054-.228.68 1.922 1.132 4.752 1.018 3.282 0 5.884.566 7.241 1.812 2.375 2.15 5.884 2.375 7.806.452 1.018-1.018 1.356-1.018 1.356.114 0 .904.68 1.246 1.698.791.904-.338 1.698 0 1.698.566 0 .791 1.246 1.018 2.83.791 1.47-.338 2.488-.228 2.264.228-.338.566 1.018 1.47 3.054 2.15 2.264.791 3.848.904 4.3.228.338-.68 2.264-.904 4.3-.68 2.15.228 3.396 0 3.054-.566-.452-.68.114-1.132 1.018-1.132 1.018 0 1.812.566 1.812 1.246 0 .904.452.904 1.584 0 1.132-1.018 1.812-.904 2.941.452 1.246 1.47 1.584 1.584 2.716 0 1.018-1.356 1.922-1.47 5.204-.228 2.15.791 4.638 1.812 5.432 2.264 1.698 1.132 3.959-.114 3.054-1.584-1.132-1.698 4.98-1.132 7.806.68 2.264 1.584 2.941 1.47 6.109-.114 1.922-.904 3.848-2.15 4.186-2.716s1.47-.68 2.488-.338c1.246.566 1.584.338 1.018-.68-.566-.904.338-.791 2.716.452 2.036 1.018 3.282 1.246 2.83.566-.566-.791.114-.791 1.584.228 2.036 1.246 2.602 1.246 3.506-.228.904-1.356 1.246-1.356 3.054.228 3.054 2.716 35.188 2.15 36.772-.566.566-1.132 1.47-1.922 2.036-1.922 1.922 0 11.768-7.693 14.481-11.202 2.375-3.054 2.941-3.282 5.543-2.036 2.488 1.132 3.168.904 4.752-1.018 1.018-1.246 2.716-2.036 3.734-1.812 2.15.452 6.788-3.054 5.884-4.525-.338-.452 0-.904.68-.904.791 0 1.018-.791.68-1.812-.904-2.375 2.264-7.354 4.186-6.561.791.228 3.396-1.132 5.543-3.282 3.959-3.734 6.561-9.729 6.561-15.275 0-1.356.791-2.83 1.698-3.168.904-.452 1.698-1.47 1.698-2.264 0-.904.791-1.922 1.698-2.264.904-.452 1.698-1.812 1.698-3.168.114-3.054 2.602-6.336 4.98-6.336 1.018 0 1.922-1.018 2.036-2.602 0-1.356.228-3.054.338-3.62 1.356-7.354 2.15-9.618 3.506-9.618.904 0 1.584-.68 1.584-1.584 0-.791.791-2.15 1.698-2.941s1.698-2.602 1.698-4.072c0-1.47.452-2.716 1.018-2.716s1.812-2.036 2.83-4.525c1.018-2.602 2.602-4.866 3.506-5.204s1.922-2.941 2.375-5.656c.566-3.734 1.584-5.543 3.959-7.354 2.488-1.812 3.282-3.168 3.282-6.222 0-2.716-.566-3.848-1.698-3.848-2.375 0-3.282-2.83-1.698-5.318 1.246-1.922 1.246-1.922.791.228-.338 1.698.114 2.375 1.698 2.488 1.922.228 2.15-.338 1.47-4.186-.68-4.072-.452-4.638 2.036-5.543 2.264-.904 2.716-1.698 2.264-3.506-.338-1.356-.114-2.83.566-3.282.791-.452.904-2.15.228-4.98-1.356-6.109.114-10.522 3.396-10.07 2.036.228 2.375-.114 1.698-1.698-.904-2.488-.904-2.15-.68-7.354.114-3.168.566-4.072 1.698-3.62 2.15.791 2.83-.566 3.396-7.016.452-4.072 1.246-6.109 3.282-7.806 2.716-2.264 4.072-4.98 4.638-9.956.228-1.356 1.018-4.072 1.698-5.884.791-1.922 1.356-6.561 1.356-10.409s.452-7.354 1.018-7.693c.68-.452 1.132-1.47 1.132-2.488 0-.904.68-3.282 1.584-5.204 3.959-8.6 5.204-12.672 5.204-16.745 0-2.375.68-6.336 1.584-8.6.791-2.375 2.15-7.127 2.941-10.522s1.698-6.902 2.036-7.806c.452-1.132.114-1.356-.791-.68-1.132.68-1.246.338-.338-1.246.566-1.246 1.356-4.98 1.812-8.372s1.356-9.843 1.922-14.143c.566-4.414 1.246-10.522 1.584-13.577.338-3.168.904-6.902 1.246-8.486.452-1.584.68-4.866.791-7.354 0-2.488.452-5.656.904-7.127 1.132-2.941 1.584-5.204 3.168-17.425 1.356-9.729.791-13.125-1.698-10.975-.904.68-1.584 2.264-1.584 3.282 0 1.132-.338 2.264-.904 2.488-1.356.566-7.92 14.822-8.711 18.781-.338 2.036-1.356 6.561-2.375 10.184-2.036 7.241-2.941 11.427-5.543 24.551-.904 4.98-2.375 11.541-3.282 14.709-5.432 18.556-6.561 23.761-6.788 31.115-.228 2.83-.566 5.884-.904 6.788-1.018 2.602-2.15 8.034-2.488 12.22-.114 2.15-.904 4.186-1.698 4.638-.791.566-1.584 3.168-1.812 5.884s-.452 5.204-.452 5.432c-.114.338-.904-.452-1.922-1.698-1.132-1.47-1.584-1.584-1.246-.452.338 1.018-.114 2.716-1.018 3.959-1.47 1.922-1.584 1.812-1.584-1.812 0-2.264-.338-4.414-.791-4.866-1.584-1.47-1.246-7.582.338-8.259 1.812-.68 2.15-7.806.452-8.825-.68-.452-.904-1.246-.452-1.812.338-.566 1.132-.791 1.698-.452 1.922 1.246 1.018-2.716-1.018-4.186-1.132-.791-2.602-2.375-3.168-3.506-1.018-1.698-1.47-1.356-3.734 2.602-1.356 2.488-2.83 4.525-3.168 4.525s-.338-2.036 0-4.525c.338-2.602.114-4.525-.566-4.525-.566 0-.791-.452-.338-1.018.338-.68-1.356-1.246-3.62-1.47-3.848-.338-4.3-.68-4.414-3.506-.114-3.282-1.584-5.884-1.584-2.83 0 1.922-2.941 3.506-4.638 2.488-1.356-.791-1.246-2.716.228-2.716.68 0 2.036-.791 2.941-1.812 1.584-1.47 1.584-1.922.338-2.716-.904-.566-2.036-.68-2.488-.452-.452.338-.904-.114-.904-1.018 0-3.396-7.582-10.409-13.691-12.559-3.396-1.246-10.975-4.414-16.859-7.241-9.956-4.638-11.088-4.866-15.047-3.62-3.396 1.018-4.98.904-7.92-.452-1.922-.904-5.998-1.584-8.938-1.584-4.866 0-5.318.228-4.3 2.036 1.47 2.83 1.47 3.734-.228 2.83-.791-.452-.338.228 1.132 1.356 2.375 2.036 2.488 2.264.791 3.734-1.584 1.246-1.922 1.132-2.488-.904-.566-2.375-.68-2.375-3.848 1.018-3.282 3.506-3.959 5.204-1.922 4.638.791-.228.904 1.018.566 3.168-.452 1.922-.228 3.396.338 3.396.68 0 .566 1.018-.228 2.264-1.698 2.716-3.734 3.054-2.716.452.338-.904.228-1.356-.452-1.018s-1.132-.114-1.132-1.018-.566-2.036-1.356-2.488c-.904-.566-1.018-.228-.566 1.018.338 1.018.228 2.15-.228 2.488-.566.228-1.246-.452-1.584-1.698s-1.356-2.264-2.375-2.264c-1.018 0-1.812-.68-1.812-1.584 0-2.83-2.15-3.168-4.752-.68-1.698 1.47-2.716 1.922-3.054 1.018-.228-.68.338-1.812 1.132-2.375 1.246-.904 1.246-1.246.114-1.698-.904-.338-1.246-1.922-.904-4.638.338-2.375.338-3.396 0-2.375-.452 1.47-1.584 1.812-5.091 1.356-4.98-.68-5.432.228-3.396 7.354.68 2.036.791 4.525.452 5.318-.791 2.375-4.638.114-5.998-3.506-.566-1.47-1.922-2.716-2.941-2.716-1.47 0-1.584-.338-.566-1.584 1.018-1.132 1.018-1.698 0-2.036-.68-.228-1.246-2.264-1.246-4.414 0-2.602-.566-4.072-1.47-4.072-1.132 0-1.47 1.584-1.246 5.77.452 6.675-.114 8.711-2.036 7.92s-4.638 2.488-2.941 3.506c1.356.791.452 2.83-1.246 2.83-.68 0-.904-.452-.566-1.018.452-.566-.338-.791-1.584-.452-2.264.566-2.83-.452-2.264-4.072.114-1.246-.228-1.132-1.698.338-1.018 1.018-2.716 1.812-3.62 1.812-1.018 0-1.47.338-1.132.68.338.452.228 1.698-.452 2.83-.791 1.584-.566 3.054.68 5.432 1.812 3.506 2.375 6.222.68 3.734-.68-1.132-1.356-.791-2.83 1.47-1.018 1.584-1.584 3.396-1.246 3.959s0 1.356-.68 1.698c-.791.566-1.132-.452-.904-3.282.228-2.716-.338-4.866-1.584-6.45-2.036-2.375-1.698-6.675.566-6.675.68 0 .904-1.018.566-2.264s-.114-2.264.452-2.264c.452 0 .68-.791.228-1.922-.566-1.584-1.132-1.356-3.396 1.47-1.356 1.812-2.602 3.959-2.602 4.638 0 .791-.566 1.47-1.246 1.47-.566 0-.904-.452-.452-1.018.338-.566.114-1.356-.566-1.812-.68-.338-1.47 0-1.812 1.018-.338.904-1.356 1.922-2.15 2.264-1.246.452-1.47-.228-.904-3.054l.68-3.62-3.054 3.168c-1.922 2.15-2.941 4.414-2.941 6.902 0 4.414-2.716 6.109-5.656 3.506-2.488-2.264-7.92 0-7.92 3.506 0 4.638-5.318 6.561-9.618 3.396-1.922-1.47-2.716-1.132-7.582 2.602-3.282 2.488-5.318 4.98-5.432 6.45 0 2.716-3.506 6.336-5.656 5.884-.791-.228-1.698.338-2.036 1.246-.338 1.132 0 1.356 1.356.904 1.47-.566 1.812 0 1.812 2.716 0 2.036.452 3.168 1.132 2.716.68-.338 1.132-.228 1.132.452 0 .566.338 1.812.68 2.83.452 1.132.114 1.812-1.018 1.812-1.018 0-2.488.791-3.396 1.584-.904.904-2.716 1.584-4.072 1.47-2.375-.114-2.488-.566-1.922-7.016.791-8.259-.566-11.427-2.716-6.336-.791 1.922-1.356 4.752-1.356 6.336 0 2.036-.68 2.83-2.15 2.83s-2.15.791-2.15 2.375c0 1.356-.904 2.602-2.15 2.941-1.132.338-2.602 2.264-3.282 4.638-1.698 5.318-.114 7.127 3.282 4.072 1.47-1.132 2.15-1.47 1.698-.791-1.018 1.812.791 1.812 5.884.452 2.83-.904 3.62-.791 3.62.566 0 .904-.904 1.584-1.922 1.698-1.246 0-1.47.338-.566.68 2.375.904.338 2.602-3.282 2.602-2.264 0-3.282.566-3.282 1.812 0 1.132.68 1.584 1.584 1.246s1.812-.114 2.15.68c.566 1.698 7.92 2.036 8.938.452.452-.791 1.356-.68 2.716.452 1.698 1.246 1.812 1.356 1.018 0-.68-1.246-.338-1.47 2.036-.791 2.488.566 2.83.452 2.264-1.246-.68-1.922-.68-1.922 1.356 0 1.132 1.132 2.375 1.698 2.716 1.132.791-1.132 5.884-1.356 5.204-.228-.338.452.452 1.018 1.698 1.356s2.264.228 2.264-.338c0-1.356 6.109-2.264 7.354-1.018s10.747 1.356 10.747.114c0-1.018 4.752-.904 6.561.228.791.452 1.356.228 1.356-.452 0-.904 1.018-1.132 2.83-.68 1.698.452 2.83.228 2.83-.452s1.698-.904 3.848-.68c2.15.228 7.354-.566 11.541-1.812s10.184-2.264 13.352-2.264c14.37-.114 20.479.452 21.269 1.698.68 1.018.904 1.018.904-.114 0-1.018.566-1.132 2.15-.228 1.246.566 3.054.791 4.186.338 1.132-.338 1.698-.228 1.356.338-.452.566 2.036 1.018 5.656 1.018 3.62-.114 6.788.338 7.127.791.791 1.246 6.902 1.356 21.949.338 11.202-.68 13.125-.566 19.009 1.698 3.62 1.356 8.372 4.072 10.522 5.884 2.941 2.602 4.525 3.282 6.788 2.716 1.584-.452 2.602-.338 2.264.228-.338.452 1.018 1.812 2.83 2.941 3.959 2.375 5.998 6.675 4.525 9.618-.68 1.132-.68 3.734-.228 6.109.791 3.282.566 4.525-1.246 6.45-1.246 1.356-1.922 3.054-1.584 3.959s.114 1.922-.452 2.264c-.68.452-1.132 0-1.132-.791-.114-.791-.791-.228-1.698 1.356-.791 1.584-2.15 2.83-3.054 2.83s-1.47 1.356-1.47 3.734c0 2.488-.68 4.186-2.036 4.98-1.812 1.018-1.922.791-1.018-1.018.791-1.47.68-2.488-.338-3.396-2.036-1.922-2.83-.68-2.036 3.282.566 3.168.452 3.396-1.922 2.602-2.15-.68-2.375-.452-1.698 1.584.904 2.941-1.47 3.282-2.488.338-1.356-3.506-3.054-3.506-4.752-.114-1.812 3.959-6.109 4.186-6.675.452-.338-1.922-.114-1.922.791-.566 1.018 1.356 1.246 1.246 1.246-.904 0-1.356-.566-2.375-1.246-2.264-.68.228-1.584-.338-1.812-1.132-.338-.68 0-1.356.68-1.356.904 0 .68-1.356-.338-3.959-1.018-2.264-1.47-4.752-1.132-5.656.452-1.132 0-1.698-1.584-1.698-1.698 0-2.602 1.246-3.734 5.091-.791 2.83-2.15 5.091-2.83 5.091-.791 0-1.584.566-1.812 1.246-.338 1.132-1.246-.228-4.638-7.693-.904-1.922-1.812-2.375-3.848-1.922-1.812.452-2.602.228-2.602-1.018 0-.904-.791-1.922-1.698-2.375-1.018-.338-1.698 0-1.698 1.018s-1.018 1.698-2.488 1.698c-2.15 0-2.264-.228-.904-1.246 1.246-.904 1.018-1.018-1.132-.338-1.584.452-2.941 1.132-3.168 1.698-.228.452-1.698.452-3.282-.228-2.15-.791-3.282-.68-3.959.338-.791 1.018-1.246 1.132-1.584.228-.791-2.036-8.938.68-10.295 3.396-.68 1.356-2.036 4.072-3.054 5.998-.904 2.036-2.264 3.734-2.83 3.734-1.812 0-1.47-1.584.791-4.638 2.941-3.734 3.734-7.468 1.812-8.259-1.812-.68-4.186 3.506-4.866 8.825 0 .566-.904.338-1.812-.452-1.246-1.018-1.356-1.922-.452-3.506.904-1.812.68-2.15-1.47-1.812-1.922.114-2.716-.452-2.941-2.375-.566-3.62-2.83-2.488-4.072 1.812-.566 2.264-1.698 3.62-2.941 3.62-1.132 0-3.168 1.812-4.638 3.959s-3.054 3.959-3.506 3.959c-1.584 0-2.264-2.375-1.018-3.734.566-.791.791-2.716.452-4.072-.68-2.602-.68-2.602-3.959 1.018-1.698 2.036-3.168 4.186-3.168 4.638 0 .566-.68 1.018-1.584 1.018s-2.602 1.47-3.62 3.396l-2.036 3.396-2.488-2.375c-2.941-2.716-3.396-2.036-3.396 4.3.114 2.716-.338 4.866-.791 4.866s-.791.68-.566 1.584c.228.904-.566 2.375-1.812 3.282-1.47 1.132-1.812 2.264-1.246 4.072.68 2.375 1.018 2.488 2.602.904 1.584-1.698 2.15-1.47 6.336 1.812 2.488 1.922 5.318 3.62 6.222 3.62 1.132 0 1.812 1.018 1.812 2.83 0 2.15.791 2.941 3.734 3.848 2.375.68 3.506 1.584 3.168 2.602-.338.791.114 1.47 1.132 1.47 1.246 0 1.47.68 1.018 2.264-.452 1.356-.228 2.264.452 2.264.904 0 .904.566 0 1.922-.904 1.47-.791 2.941.114 5.432.904 2.375 1.47 2.941 2.15 1.812.68-1.018 1.246-1.132 1.698-.338.452.68-.338 1.812-1.584 2.488s-2.264 2.15-2.264 3.396c0 1.584-.566 2.036-1.922 1.47-1.922-.68-1.922-.566-.114 1.47 1.132 1.356 1.698 3.62 1.47 6.109-.114 2.15-.338 4.638-.452 5.432-.114 1.018-.68 1.132-2.264.228-2.941-1.584-3.506-1.47-2.83.566.452.904.228 1.698-.338 1.698s-1.132-3.282-1.246-7.354c-.228-8.259-2.375-14.481-2.488-7.127 0 4.866-1.584 6.222-4.3 4.072-1.698-1.356-1.812-1.246-.338.452 1.132 1.47 1.246 3.734.68 8.259-.791 6.788-2.83 8.486-2.83 2.488l-.114-3.62-3.848 6.788-.338-4.3c-.228-2.264-.791-3.959-1.356-3.62s-1.47-1.356-1.812-3.959c-.68-3.848-1.132-4.525-3.396-4.525-1.698 0-2.716.68-2.716 1.698 0 .904-.452 1.698-1.132 1.698-.566 0-1.132.68-1.132 1.47s-.791 2.602-1.812 3.959c-2.375 3.396-4.98 1.47-4.98-3.848 0-2.83-.452-3.848-1.812-3.848-1.246 0-1.698.68-1.246 2.264.338 1.246.114 2.264-.452 2.264s-1.018.566-1.018 1.246c0 1.584-5.543 8.372-5.77 7.016-.114-.452-.228-2.488-.338-4.3-.114-2.036-.68-3.282-1.47-3.054-1.922.338-1.812-3.054.114-6.902 1.47-2.716.566-4.525-1.018-1.922-.904 1.47-3.959.114-3.959-1.812 0-.904.791-1.922 1.698-2.264 2.602-1.018 2.036-3.168-1.584-5.318-3.168-1.812-6.561-2.83-3.848-1.018 1.018.68.68 2.036-1.584 5.318-2.716 3.959-3.054 4.186-3.959 2.15-.566-1.47-.68-1.018-.228 1.47.338 1.922.114 3.848-.566 4.186-1.132.791-1.356.228-3.282-9.504l-1.132-5.091-.791 3.62c-.452 1.922-1.47 3.848-2.375 4.186-1.698.68-1.922-.114-1.698-5.543.228-2.716 0-3.054-1.018-1.698-1.018 1.246-1.132.452-.566-3.734.338-2.941.338-5.318-.228-5.318-.452 0-2.716 2.602-4.866 5.656-3.396 4.752-4.186 5.318-5.543 3.959s-1.356-2.036.452-4.638c1.132-1.698 3.506-4.525 5.318-6.336 1.812-1.698 2.602-3.168 1.698-3.168-.791 0-2.036.566-2.83 1.356-.904.904-1.698.904-2.83 0-.904-.791-1.922-1.018-2.375-.566s-.68-1.812-.566-4.98c.114-3.282.68-5.656 1.132-5.432.791.566 2.15-2.15 2.15-4.3 0-.791-.566-.68-1.246.338-.904 1.356-1.018 1.132-.452-.904.791-2.83-2.375-7.016-4.752-6.222-.68.228-2.036-.338-3.054-1.47-2.036-1.922-5.884-1.356-4.525.791.338.68.114 2.488-.791 3.959-1.584 2.941-3.62 3.734-2.602 1.018.452-.904.114-1.698-.566-1.698s-1.246.566-1.246 1.246c0 .566-.566.791-1.246.338-.68-.338-2.488-.114-3.959.68-3.282 1.812-6.222-.114-5.318-3.506.338-1.246.904-1.922 1.246-1.698.338.338 1.47-.452 2.602-1.812l2.15-2.375v7.468l2.716-2.716c1.584-1.47 3.848-3.62 5.091-4.866 3.054-2.83 1.812-5.656-2.264-4.752-4.072.791-4.98-.791-2.602-4.414 1.584-2.375 1.584-3.168.338-4.638-1.246-1.584-1.584-1.584-2.716-.114-1.698 2.264-8.486 3.734-8.486 1.698 0-1.812-5.091-4.3-8.711-4.3-2.716 0-4.866-2.941-4.866-6.675 0-1.246-1.356-3.282-2.941-4.525-3.62-2.83-4.98-2.941-4.98-.68 0 2.83-2.15 1.922-2.941-1.132-.904-3.734-2.941-3.054-3.396 1.018s-2.15 5.998-2.375 2.716c-.114-1.47-1.132-3.282-2.264-4.072-1.47-1.132-1.584-1.812-.566-2.15 1.922-.791 1.698-2.375-.791-5.543-2.375-3.054-2.036-6.45.904-9.956 1.698-2.036 1.698-2.15-.114-1.47-1.47.566-2.036.114-2.036-1.47 0-1.132-.566-2.488-1.132-2.83-.791-.452-.904-2.716-.452-5.998.68-4.638.566-5.091-.904-3.959-.904.791-2.375 4.414-3.168 7.92-.791 3.62-2.15 7.582-2.941 8.825-1.47 2.036-1.584 1.922-1.584-1.47 0-2.15.791-4.525 1.698-5.543.904-.904 1.584-3.054 1.47-4.752-.114-1.584.228-3.734.791-4.638.791-1.47.68-1.47-.791-.228-1.584 1.246-1.922 1.132-2.264-.566-.68-3.054.338-7.241 1.47-6.45.566.338 1.018-.338 1.132-1.47 0-1.132.228-3.168.566-4.638l.452-2.602-2.488 2.375c-4.072 3.848-7.241 2.716-3.62-1.246 1.246-1.356 1.47-2.602.68-3.959s-1.246-1.47-1.922-.566c-1.246 2.15-4.98-1.812-4.3-4.525.338-1.132 1.132-2.15 1.698-2.15s.791-2.716.566-6.222c-.338-3.396-.114-6.561.452-6.902s1.018-1.132 1.018-1.698c0-1.922-2.375.114-3.396 3.054-1.246 3.168-3.396 3.62-3.396.68 0-1.698-.228-1.698-2.036.452-1.018 1.246-2.602 2.264-3.506 2.264-1.922-.114-3.168-2.941-1.356-2.941.904 0 .791-.791-.114-2.264-1.246-1.922-1.132-2.488 0-3.282 1.132-.68.68-1.132-1.698-1.584-1.698-.338-3.848-.114-4.525.566-1.922 1.584-2.036-1.47-.114-3.396.791-.791 1.47-3.054 1.584-5.091.114-1.922.566-5.656 1.018-8.145.904-4.186.791-4.414-1.018-2.941-1.698 1.47-2.036 1.356-2.488-.566-.338-1.132-2.264-2.941-4.414-3.959-2.83-1.356-3.62-1.356-3.168-.228.338.791 0 1.47-.68 1.47s-1.246-.791-1.246-1.698c0-1.584-.338-1.47-2.83.114-2.716 1.812-2.83 1.698-2.83-.566 0-1.246-.338-2.264-.791-2.15-1.812.566-5.656-3.168-6.336-6.109-.452-1.698-.338-4.3.338-5.884.68-1.922.68-2.941 0-2.941-1.246 0 .904-4.525 2.83-5.998.68-.452.452-1.246-.566-1.922-1.356-.791-2.036-.338-3.282 2.264-2.83 5.77-5.091 3.168-2.941-3.282.791-2.488.566-2.602-2.15-2.15-3.054.566-4.98-.68-2.941-1.922.566-.338 1.132-1.246 1.132-1.812 0-.68-.452-.791-1.132-.452-.566.338-.791 0-.452-1.018.338-.904 1.356-1.922 2.264-2.264 2.375-.904.566-4.072-2.15-3.734-2.602.228-4.186-3.506-2.036-4.752.904-.566.791-1.47-.338-2.941-1.246-1.698-1.922-1.922-3.168-.791-2.036 1.584-4.3-.228-4.3-3.396 0-1.132-.791-2.375-1.698-2.716-.904-.452-1.698-1.584-1.698-2.83 0-1.132-.791-2.488-1.922-3.054-1.018-.68-1.584-1.812-1.132-2.83.566-1.584-2.602-3.506-5.091-3.168-1.132.114-1.132-1.812 0-2.488 1.132-.791.904-6.788-.452-8.825-.452-.904-1.018-2.15-1.132-2.941-.338-2.15-2.602-5.543-2.716-3.959 0 .904-.68 1.356-1.356 1.132-1.356-.452-2.036-3.506-2.036-9.618 0-1.356-.791-3.848-1.698-5.656-.904-1.698-1.698-4.3-1.698-5.77 0-1.356-.791-2.83-1.698-3.168-1.132-.452-1.47-1.47-1.132-2.83.452-1.246.228-2.15-.338-2.15-1.356 0-1.132-7.127.338-8.259 1.356-1.018-2.716-4.414-4.186-3.506-2.264 1.47-6.561-2.15-6.561-5.432 0-1.698.452-3.168 1.018-3.168 1.812 0 0-4.3-2.036-4.866-1.47-.338-1.812-1.698-1.584-7.354.114-3.848-.228-7.016-.68-7.016-.566 0-1.246-2.941-1.698-6.45-1.018-8.938-1.812-11.768-3.168-10.975-.566.338-.791 1.356-.452 2.264.338.791.114 1.812-.452 2.15-1.698 1.018-1.356-4.414.338-6.109 1.132-1.132.904-1.698-.791-3.054-1.246-.904-2.941-1.584-3.734-1.584-1.922 0-1.812-2.716.114-9.729.904-3.054 1.922-8.938 2.264-13.238.791-8.938 2.716-14.256 6.561-17.311 3.959-3.054 4.638-4.752 5.091-11.088.228-4.525-.114-6.109-2.036-8.145-2.036-2.15-2.264-3.396-1.698-8.034.338-2.941 1.132-9.618 1.698-14.822.904-8.711 2.375-12.672 4.752-12.672.566 0 3.396-1.698 6.336-3.848 3.054-2.15 8.372-5.432 11.879-7.354 9.729-5.204 11.654-6.222 12.22-7.016.338-.338 1.584-.566 2.83-.452 9.052.791 10.747 5.204 11.993 29.983.452 10.295 1.132 20.931 1.47 23.761s.904 9.618 1.246 15.275c1.47 23.195 1.922 27.381 3.506 33.038.904 3.168 1.584 6.902 1.584 8.145 0 3.848 4.414 15.841 7.127 19.685 7.806 10.975 11.654 14.481 20.365 18.215 16.972 7.468 21.045 9.052 28.965 11.541 4.752 1.47 9.618 3.168 10.861 3.734 7.582 3.282 20.479 4.98 42.994 5.432 20.931.566 25.117.338 35.074-1.698 21.835-4.525 54.082-19.461 62.907-29.19 3.168-3.62 10.295-13.577 11.541-16.293.452-.904 1.698-3.054 2.83-4.638 4.638-7.016 17.991-30.888 24.327-43.222 9.729-19.233 15.047-22.853 29.417-20.251 9.618 1.812 12.331 4.752 16.517 18.215 1.812 5.998 3.62 13.125 3.959 15.954.68 5.998 2.83 16.631 4.072 19.799.452 1.246 1.922 5.318 3.282 9.052 3.734 10.295 10.184 23.309 13.691 27.719 3.396 4.3 8.486 14.709 9.391 19.233.68 3.396 2.83 9.729 4.638 13.463 2.602 5.656 17.991 10.861 39.712 13.238 7.468.904 15.954 1.47 19.009 1.246 5.318-.338 5.318-.338 6.675 3.959 1.47 4.866 2.488 4.752 2.602-.452 0-3.959 2.15-4.98 11.879-5.998 2.83-.338 6.336-1.018 7.92-1.584s6.109-1.922 10.184-3.054c8.938-2.488 22.515-10.07 26.929-15.161 4.414-4.98 13.463-19.913 18.443-30.435 3.054-6.561 6.109-12.897 6.675-13.915.68-1.132 1.132-2.602 1.132-3.282 0-.791 1.132-3.734 2.375-6.561 1.356-2.83 2.941-6.336 3.62-7.693.566-1.356 1.132-3.396 1.356-4.525.114-1.132.791-3.62 1.584-5.432.791-1.922 1.698-4.752 2.036-6.561.338-1.698 1.018-3.054 1.47-3.054s1.246-1.812 1.584-3.959c.452-2.15 1.356-3.959 1.922-3.959.68 0 .904-.904.566-2.036-.904-2.941 7.127-13.915 11.202-15.388 1.922-.68 3.506-2.264 3.734-3.506s1.132-3.62 2.036-5.318c.904-1.698 1.584-3.734 1.584-4.638s1.018-4.866 2.375-8.825c2.941-8.825 3.62-15.161 1.812-16.631-1.812-1.356-13.238-5.204-21.159-7.016-8.6-1.922-21.835-5.77-23.195-6.788-3.054-2.15-34.169-7.016-47.519-7.354-6.788-.114-13.352-.68-14.595-1.132-1.132-.566-3.62-1.246-5.656-1.812-3.168-.791-3.282-.904-1.018-1.584 1.356-.452 2.716-1.584 3.054-2.488.452-1.018.114-1.356-.791-.791-1.018.566-1.018.452.114-.791.68-.791 1.356-3.054 1.356-4.98 0-4.752 3.506-18.667 4.638-18.667.566 0 1.018-1.356 1.018-2.941 0-4.186 1.812-6.902 5.204-7.693l3.054-.791-2.602-2.716c-1.356-1.356-2.716-4.752-3.054-7.354s-1.356-4.98-2.264-5.318c-1.132-.452-1.246-1.018-.228-2.15.68-.791.791-2.15.338-2.83-.452-.904-.338-1.018.452-.566 1.584.904 1.698-2.036.338-5.543-.68-1.698-.228-2.941 2.264-5.204 3.282-2.83 3.282-2.941 1.47-6.788-.904-2.15-2.264-4.752-2.83-5.998-.904-1.584-.791-1.922.338-1.584 1.356.452 4.3-1.584 4.3-2.941 0-.338-1.47-2.15-3.396-3.848-3.506-3.396-4.3-6.336-2.15-7.693.68-.452.904-1.922.338-3.734-.452-1.584-.904-4.866-1.018-7.241-.228-2.264-1.132-5.998-2.15-8.034-3.282-7.016-3.168-10.975.68-14.481 1.922-1.698 3.848-3.168 4.3-3.168 1.698 0 2.488-4.414 1.698-9.391-1.018-6.336-3.054-12.106-4.3-12.106-.566 0-.566-.566.114-1.47 1.132-1.47 1.018-7.92-.338-16.631-.452-3.506-.228-6.675 1.018-9.956 1.132-3.168 1.47-5.656.791-6.788-1.47-2.941-.904-9.391 1.47-14.029 1.132-2.375 1.812-5.091 1.356-5.998-.338-1.018-.228-1.584.228-1.246.566.338 1.018-1.246 1.018-3.506.114-2.15.68-4.525 1.356-5.204 1.584-1.584 1.698-11.768.114-12.672-.566-.338-1.132-1.698-1.132-3.054 0-1.47-.566-2.036-1.47-1.698-1.132.452-1.47-.228-1.018-2.15.452-2.264.114-2.602-1.47-1.922-1.812.566-1.922.228-1.356-2.83.68-3.62-.904-9.052-3.168-10.636-.68-.566-.452-.904.566-.904 1.47 0 1.47-.114 0-1.132-.904-.566-1.698-2.941-1.922-5.318-.114-2.375-.904-4.752-1.812-5.432-.904-.566-1.356-1.812-1.018-2.602.228-.791-.114-2.15-.904-3.054-.68-.904-1.018-2.15-.566-2.83s.114-1.018-.791-.904c-1.132.228-1.47-1.356-1.47-6.45 0-3.734-.68-7.92-1.47-9.391-.791-1.356-1.132-3.506-.791-4.638.338-1.246-.114-2.941-1.132-3.959-1.47-1.47-1.584-2.602-.68-5.998.791-2.602.791-4.638.114-5.432s-.68-1.698 0-2.375c.566-.566 1.132-3.734 1.246-7.016.228-3.282.68-6.222 1.132-6.561.452-.228.228-1.698-.452-3.168-.791-1.47-1.698-2.488-2.15-2.264-.566.338-.904 0-.904-.566 0-.68.566-1.246 1.132-1.246.68 0-.114-1.922-1.698-4.186-1.584-2.375-2.83-5.432-2.83-6.788 0-1.47-.566-2.602-1.246-2.602-.566 0-1.698-1.584-2.264-3.396-.68-1.922-1.922-3.396-2.83-3.396s-1.246-.68-.791-1.922c.452-1.246.338-1.584-.566-1.018s-1.132.228-.68-.904c.338-1.018.114-1.812-.566-1.812s-1.246-.904-1.246-2.036c0-1.132-.791-3.168-1.812-4.525-.904-1.356-1.356-2.488-.904-2.488.338 0 .114-.791-.791-1.812-.791-1.018-1.584-2.83-1.584-4.186-.114-1.246-1.584-3.506-3.168-4.866-1.698-1.47-3.054-3.396-3.054-4.414 0-.904-.566-1.698-1.246-1.698-.566 0-.904-.452-.452-1.018.338-.566.114-1.47-.566-1.812-.68-.452-.904-1.698-.566-2.941.452-1.246.228-2.15-.566-2.15s-1.132-.68-.791-1.584c.338-1.018-.452-2.375-2.15-3.396-1.47-1.018-2.716-2.602-2.716-3.396 0-2.716-12.672-6.336-14.143-4.072-.566.904-1.246.791-2.602-.228-1.356-1.132-1.812-1.132-2.15 0-.338.68-1.018 1.132-1.584.68-.566-.338-1.018 0-1.018.566 0 .68-2.264 1.246-5.091 1.246s-5.091-.452-5.091-1.018c0-.68-1.356-.68-3.168-.114-1.812.452-4.072.452-5.091-.228-1.132-.566-1.922-.566-1.922 0 0 1.47-5.318 7.016-6.788 7.016-.566 0-1.132.338-1.132.791 0 1.47-10.522.904-13.238-.566-1.47-.791-2.602-2.15-2.602-3.168 0-.904-.791-1.922-1.698-2.264s-4.525-4.98-8.034-10.295c-4.186-6.222-6.902-9.277-7.92-8.938-.904.338-3.734-1.47-6.336-4.072-3.282-3.054-5.884-4.638-7.92-4.638-1.698 0-2.83-.452-2.488-.904.338-.566-1.246-.228-3.396.68-3.396 1.47-3.959 1.47-4.525 0-.68-1.922-2.941-2.264-2.941-.566zm-82.592 193.02c4.072.338 8.938.791 10.861.904 1.922.228 4.186.68 4.866 1.132.791.452 2.15.566 3.054.228 1.018-.338 1.356-.114 1.018.452-.338.68.452 1.132 1.922 1.132s4.752.791 7.354 1.698c2.602.904 6.788 1.812 9.166 1.922 2.488.228 4.525.791 4.414 1.47-.114.566 1.018 1.246 2.602 1.47 4.638.566 16.065 4.752 21.497 7.806 2.83 1.584 9.843 3.848 15.613 4.98s11.993 2.941 13.804 3.848c3.62 1.922 6.109 2.264 3.396.566-.904-.566-1.132-1.132-.452-1.132s1.922.68 2.602 1.584c.68.791 3.734 2.15 6.675 2.941s7.127 2.375 9.391 3.506c2.264 1.132 4.414 1.812 4.752 1.47s1.132.338 1.812 1.584c.904 1.584 3.282 2.716 7.693 3.62 7.468 1.584 14.822 4.525 17.425 7.016 2.264 2.264 8.372 5.432 10.522 5.432 1.922 0 3.506 1.584 7.468 7.354 1.584 2.264 4.525 5.656 6.561 7.582 1.922 1.922 3.62 4.186 3.62 4.866s2.036 4.186 4.525 7.693c2.488 3.506 6.109 9.843 8.034 14.029s4.186 8.145 5.091 8.6c2.488 1.47 4.525 6.222 7.127 17.197 2.941 12.559 4.3 16.859 6.902 22.629 2.15 4.638 3.054 9.843 4.072 23.195.338 4.072 1.018 8.372 1.584 9.618s1.246 9.618 1.47 18.667c.566 19.233-.228 21.835-9.843 30.774-5.432 5.204-9.052 6.788-9.956 4.3-.68-2.15-10.861-2.716-15.388-.791-2.264.904-7.354 2.602-11.202 3.734-3.959 1.132-7.127 2.488-7.127 2.941 0 .566-1.018.452-2.264-.228-1.584-.791-2.264-.791-2.264 0 0 .68-1.922 1.018-4.525.791-2.488-.228-4.525.114-4.525.566 0 .566-.452.791-1.018.338-.566-.338-1.47 0-1.812.68-.452.566-1.584.904-2.488.566s-1.246-.114-.904.452c.338.68-.228 1.132-1.356 1.132-3.959 0-16.065 9.956-16.179 13.238 0 .791-1.018 1.922-2.264 2.602s-2.036 1.698-1.698 2.264c.452.68-.114.791-1.246.338-1.246-.452-1.698-.338-1.246.566 1.018 1.584-9.729 2.941-16.745 2.15-11.541-1.47-44.578-14.029-48.198-18.443-.68-.904-2.036-1.584-2.83-1.584-.904 0-1.584-.338-1.584-.904 0-.452-1.47-1.47-3.396-2.264-1.812-.904-3.396-2.264-3.396-3.168s-.452-1.584-1.018-1.584c-.566 0-1.922-.791-2.83-1.812-1.018-.904-1.812-1.246-1.812-.566 0 2.264-2.15 1.246-2.488-1.246-.228-1.584-1.356-2.488-3.168-2.83-1.584-.228-3.054-1.018-3.282-1.698-.904-2.602-13.804-12.22-16.406-12.22-1.018 0-1.812-.452-1.812-1.018 0-.68-2.264-1.47-5.091-1.922-2.83-.338-5.091-1.132-5.091-1.698s-1.47-1.018-3.282-1.018c-1.922 0-3.734-.566-4.186-1.246-.338-.68-1.922-.904-3.282-.566-1.47.338-2.941.228-3.282-.338s-3.282-1.356-6.336-1.812c-3.168-.452-5.656-1.132-5.656-1.698 0-1.356-5.543-2.036-5.998-.68-.338.791-1.018.791-2.264-.338-1.132-.791-3.396-1.246-5.318-1.018-1.922.338-3.734.114-4.072-.452-.338-.452-2.036-.904-3.848-.904-1.698 0-3.396-.68-3.734-1.47-.338-1.018-2.264-1.47-5.204-1.246-2.602.114-4.638-.228-4.638-.791 0-1.47-5.318-1.246-6.222.114-.566.904-1.356.791-2.488-.114-1.132-1.018-1.922-1.018-2.375-.228-1.132 1.698-8.145 2.83-8.145 1.356 0-.904-.452-.904-1.47-.114-.791.68-7.241 1.246-14.37 1.356s-16.517.228-20.931.338c-4.3.114-15.047-.68-23.761-1.812-18.101-2.15-39.374-2.83-43.56-1.47-2.83 1.018-6.788 4.752-6.788 6.561 0 .452-.452.904-1.132.904-1.922 0-1.246-5.432.904-6.788 1.47-.904 1.246-1.018-1.47-.452-1.812.452-4.186 1.47-5.204 2.264-.904.904-2.375 1.584-3.054 1.584-.791 0-1.356.566-1.356 1.246 0 .791-1.018 1.018-2.375.68s-2.488 0-2.941 1.018c-.338.904-1.698 1.584-3.054 1.47-1.246-.114-3.62.338-5.204.904-6.675 2.716-7.92 2.83-7.92.68 0-1.132.68-4.638 1.584-7.92.904-3.168 1.584-11.541 1.584-18.667l.114-12.786 4.186-3.848c3.506-3.168 4.3-4.866 4.752-9.391.338-3.396 1.018-5.432 1.922-5.432 1.584 0 2.83-2.488 2.83-5.656 0-1.132.68-2.83 1.47-3.62 2.83-2.83 4.186-6.336 4.186-10.975 0-3.282.452-4.638 1.698-4.638 2.488 0 4.072-4.072 4.525-11.541.338-5.091 1.132-7.582 2.941-9.504 1.47-1.584 2.15-3.396 1.698-4.414-.338-1.018-.338-2.488.114-3.168.452-.791 1.018-2.375 1.132-3.62.566-3.282 1.47-5.543 2.036-4.866.338.338 4.186-2.941 8.486-7.127 6.109-6.109 8.6-7.806 11.202-7.806 1.812 0 3.734-.566 4.072-1.132.452-.68 1.246-.904 1.812-.566.566.452 1.018-.228 1.018-1.356 0-2.488 12.331-16.293 14.595-16.179.904 0 1.246-.791.904-2.264-.566-2.264.791-3.168 2.036-1.246.338.566 1.922-.114 3.62-1.698 1.584-1.47 4.752-3.168 7.127-3.848 2.264-.566 5.318-2.375 6.788-3.959 1.356-1.47 3.054-2.488 3.506-2.15.566.338 1.018 0 1.018-.566 0-.68.791-1.246 1.812-1.246s3.734-1.584 6.109-3.396c2.375-1.922 4.98-3.396 5.884-3.396s2.264-.68 2.941-1.356c1.132-1.132 1.698-1.132 2.488.228.904 1.356 1.698 1.018 4.866-2.036 2.036-1.922 4.752-3.62 5.998-3.62 1.132 0 2.83-1.018 3.62-2.264s2.602-2.264 4.186-2.264c1.812 0 2.83-.68 2.83-1.698 0-.904.791-1.698 1.698-1.698s1.698-.566 1.698-1.246c0-.791 1.132-1.018 2.83-.566s2.83.228 2.83-.452.566-.904 1.132-.566c.68.452 3.506-.338 6.222-1.584 2.83-1.356 5.998-2.375 7.016-2.375 3.168 0 7.127-1.356 6.675-2.15-.228-.338 1.922-.791 4.752-.904s5.432-.68 5.77-1.246c.338-.566 5.543-.68 11.427-.228 8.145.566 10.975.452 11.879-.68.68-1.018 2.488-1.356 5.091-.904 2.15.228 7.241.791 11.313 1.132zM376.574 420.458c1.356.68 2.375 1.922 2.375 2.83 0 .791.566 1.698 1.246 1.922 2.602.904-1.47 6.45-5.091 7.127-4.072.791-18.215-2.264-21.835-4.638-3.054-1.922-3.282-3.506-.68-7.127 1.698-2.602 2.264-2.716 11.768-2.036 5.432.338 10.975 1.246 12.22 1.922zm264.863 318.946c0 1.132.791 2.375 1.698 2.83 1.922.68 2.375 5.204.566 5.204-.566 0-1.132 1.47-1.132 3.396 0 2.602.452 3.396 2.264 3.396 1.246 0 2.264.452 2.264.904s1.246 1.018 2.83 1.132c2.83.228 7.354 3.848 7.354 5.884 0 .68.68 1.47 1.584 1.812s1.356 1.47 1.018 2.83c-.452 1.47-1.246 2.036-2.264 1.698-4.414-1.698-7.354-1.922-11.088-.68-2.941 1.018-3.959 1.812-3.396 3.054.452 1.47.338 1.584-1.132.338-1.47-1.132-2.264-.904-4.638 1.584-1.698 1.584-3.734 2.941-4.638 2.941s-2.602 1.018-3.959 2.264c-2.602 2.375-8.825 3.168-8.825 1.018 0-.68-.904-.904-2.15-.452-1.132.338-2.716-.114-3.506-1.132-.791-.904-2.375-1.698-3.506-1.698s-2.375-.566-2.83-1.246c-.338-.68-1.922-.904-3.506-.452-1.584.338-3.506.114-4.414-.68-1.356-1.132-1.47-1.018-.904.566.791 2.036-1.246 2.488-2.375.566-.566-.68-2.941-.904-6.675-.452-3.282.452-7.92.791-10.409.791-2.716.114-5.318 1.018-6.902 2.375-1.47 1.246-3.282 1.922-4.3 1.47-1.018-.338-1.47-.228-1.132.452s-.338 1.132-1.47 1.132c-2.941 0-9.504 2.83-8.6 3.62.904 1.018-9.277 2.375-11.993 1.698-1.246-.338-3.054.114-3.848 1.018-.904.904-2.264 1.584-2.941 1.584s-.904.452-.566 1.132c.904 1.47.452 1.47-4.414-.566-2.941-1.246-3.959-1.356-3.848-.338.228.68-.566 1.584-1.584 1.812-1.132.228-2.036-.228-2.15-1.132 0-.791-.228-2.375-.452-3.62-.566-2.83.566-5.204 2.375-5.204.904 0 2.15-1.246 2.716-2.83s1.812-2.83 2.83-2.83c.904 0 1.698-.68 1.698-1.584s1.018-2.716 2.264-4.186c2.036-2.602 2.15-2.602 2.264-.452s.114 2.15 1.698.114c.904-1.246 2.375-1.812 3.396-1.47.904.452 1.698.228 1.698-.338 0-.68.791-1.132 1.698-1.132s1.698.452 1.698 1.018c0 .566.904 1.246 2.036 1.584 1.018.228 2.716.904 3.734 1.246 1.47.68 1.812-.114 1.922-4.414.228-3.734-.114-4.98-1.018-4.414-.791.452-1.132.114-.791-.791.904-2.83 3.396-1.698 5.318 2.375 1.356 2.83 2.488 3.848 4.414 3.734 1.356 0 3.734-.114 5.318-.228 2.036-.114 2.602-.566 2.15-2.15-.338-1.018.228-.566 1.246 1.132 1.922 3.396 3.959 4.186 3.959 1.584 0-.904 1.356-2.716 3.054-4.072 1.812-1.356 2.602-2.716 1.922-3.168-.566-.452-1.698-2.264-2.488-3.959-1.132-2.716-1.018-3.959.904-8.145 1.246-2.716 2.264-5.543 2.264-6.222s.566-.904 1.246-.566c.68.452.904 2.941.452 6.45-.566 4.186-.338 5.998.791 6.675 1.132.791 1.132 1.018.114 1.018-.791 0-1.47.68-1.47 1.47 0 .904 1.584 1.47 4.525 1.584 4.186.114 5.091-.566 4.638-3.396-.114-.452.68-1.698 1.584-2.716 1.812-1.812 5.091-1.246 5.091.904 0 .68.68 1.018 1.584.68 1.018-.452 1.812.452 2.264 2.83.452 2.488 1.132 3.282 2.488 2.716 1.018-.338 2.488-.68 3.396-.68 1.018 0 1.47-.452 1.132-1.018s.566-1.018 2.15-1.018c1.47 0 2.602.338 2.488.791-.114.338.338.68.904.68.68 0 1.018-.338.791-.904-.114-.452 1.812.452 4.3 2.036 3.506 2.264 4.525 2.488 4.525 1.132 0-.904 1.018-1.698 2.375-1.698 1.246 0 2.036-.452 1.584-1.018-.791-1.47 1.246-2.716 6.675-4.072 3.848-1.018 4.186-1.356 2.83-2.83-2.264-2.488-2.716-12.445-.452-12.445.904 0 1.698 1.018 1.698 2.15z"/><path d="M179.367 497.622c-3.62 5.543-7.468 17.991-7.468 24.099 0 4.638-.452 6.222-1.584 6.222-.904 0-2.375.338-3.282.68-1.356.452-1.812-1.132-2.036-9.052-.452-10.409-1.356-12.445-3.848-9.052-1.018 1.356-1.584 4.98-1.698 10.295 0 8.938 1.356 13.915 3.848 13.915.904 0 2.83 3.282 4.752 7.92 2.83 7.354 3.054 8.6 2.375 20.027l-.68 12.106 4.525 10.184c4.414 9.618 14.256 25.117 15.388 23.985.228-.228-.228-2.941-1.246-5.998-3.396-11.088-6.902-34.622-8.034-55.214-.452-6.902-1.246-13.577-2.036-15.047-1.018-2.15-.68-3.62 1.812-8.825 5.091-10.409 9.956-16.179 13.577-16.293 5.77 0 2.602-7.92-4.414-10.861-5.318-2.264-8.034-1.922-9.956.904zm30.773 100.583c-2.036 1.132-3.506 5.543-4.866 14.143-.68 4.3-.452 4.752 2.488 5.884 1.698.68 6.45 1.584 10.522 2.036 7.92.791 13.915 3.282 17.425 7.127 4.072 4.414 10.861 1.698 10.861-4.414 0-4.3-2.375-10.861-5.204-14.143-1.47-1.812-2.716-3.959-2.83-4.98 0-1.018-.566-.228-1.132 1.584-.791 3.054-5.884 7.354-8.6 7.354-.452 0-2.83-1.812-5.091-3.959-3.054-2.716-4.3-4.752-4.3-7.127 0-2.488-.68-3.506-2.488-4.072-3.506-.904-4.525-.791-6.788.566zm369.636 60.077c-6.561 2.036-8.486 3.62-10.747 8.259-3.734 7.693-3.168 9.052 4.866 12.786 3.848 1.812 10.409 4.186 14.595 5.318l7.468 2.036 9.729-4.752c5.318-2.602 9.729-5.204 9.729-5.77 0-.68-3.054-4.072-6.675-7.693-5.318-5.091-8.034-6.902-13.352-8.372-9.956-2.83-11.879-3.054-15.613-1.812z"/></svg>